<mxfile host="app.diagrams.net" modified="2023-12-28T08:38:59.191Z" agent="Mozilla/5.0 (Windows NT 10.0; Win64; x64; rv:121.0) Gecko/20100101 Firefox/121.0" etag="UNpkSgGKbLU0Dxmm2jsr" version="22.1.15" type="device">
  <diagram id="C5RBs43oDa-KdzZeNtuy" name="Page-1">
    <mxGraphModel dx="3563" dy="2198" grid="1" gridSize="10" guides="1" tooltips="1" connect="1" arrows="1" fold="1" page="1" pageScale="1" pageWidth="827" pageHeight="1169" math="0" shadow="0">
      <root>
        <mxCell id="WIyWlLk6GJQsqaUBKTNV-0" />
        <mxCell id="WIyWlLk6GJQsqaUBKTNV-1" parent="WIyWlLk6GJQsqaUBKTNV-0" />
        <mxCell id="dkalc_hDWcm7XEXlRDou-80" value="" style="group" vertex="1" connectable="0" parent="WIyWlLk6GJQsqaUBKTNV-1">
          <mxGeometry x="11" y="20" width="806" height="220" as="geometry" />
        </mxCell>
        <mxCell id="WIyWlLk6GJQsqaUBKTNV-7" value="&lt;b&gt;CALL_M_MONITOR&lt;/b&gt;" style="rounded=1;whiteSpace=wrap;html=1;fontSize=12;glass=0;strokeWidth=1;shadow=0;arcSize=0;" parent="dkalc_hDWcm7XEXlRDou-80" vertex="1">
          <mxGeometry x="326" y="100" width="134" height="40" as="geometry" />
        </mxCell>
        <mxCell id="dkalc_hDWcm7XEXlRDou-2" value="&lt;b&gt;CALL_M_HARDWARE&lt;/b&gt;" style="rounded=1;whiteSpace=wrap;html=1;fontSize=12;glass=0;strokeWidth=1;shadow=0;arcSize=0;" vertex="1" parent="dkalc_hDWcm7XEXlRDou-80">
          <mxGeometry x="163" y="100" width="156" height="40" as="geometry" />
        </mxCell>
        <mxCell id="dkalc_hDWcm7XEXlRDou-4" value="&lt;b&gt;CALL_M_SIMULATION&lt;/b&gt;" style="rounded=1;whiteSpace=wrap;html=1;fontSize=12;glass=0;strokeWidth=1;shadow=0;arcSize=0;" vertex="1" parent="dkalc_hDWcm7XEXlRDou-80">
          <mxGeometry x="163" y="180" width="156" height="40" as="geometry" />
        </mxCell>
        <mxCell id="dkalc_hDWcm7XEXlRDou-12" value="OR" style="edgeStyle=orthogonalEdgeStyle;rounded=0;orthogonalLoop=1;jettySize=auto;html=1;exitX=0.5;exitY=1;exitDx=0;exitDy=0;entryX=0.5;entryY=0;entryDx=0;entryDy=0;endArrow=none;endFill=0;" edge="1" parent="dkalc_hDWcm7XEXlRDou-80" source="dkalc_hDWcm7XEXlRDou-2" target="dkalc_hDWcm7XEXlRDou-4">
          <mxGeometry relative="1" as="geometry" />
        </mxCell>
        <mxCell id="dkalc_hDWcm7XEXlRDou-6" value="&lt;b&gt;CALL_M_NAV2&lt;/b&gt;" style="rounded=1;whiteSpace=wrap;html=1;fontSize=12;glass=0;strokeWidth=1;shadow=0;arcSize=0;" vertex="1" parent="dkalc_hDWcm7XEXlRDou-80">
          <mxGeometry x="650" y="100" width="156" height="40" as="geometry" />
        </mxCell>
        <mxCell id="dkalc_hDWcm7XEXlRDou-7" value="&lt;b&gt;CALL_M_SUPERVISOR&lt;/b&gt;" style="rounded=1;whiteSpace=wrap;html=1;fontSize=12;glass=0;strokeWidth=1;shadow=0;arcSize=0;" vertex="1" parent="dkalc_hDWcm7XEXlRDou-80">
          <mxGeometry y="100" width="156" height="40" as="geometry" />
        </mxCell>
        <mxCell id="dkalc_hDWcm7XEXlRDou-8" value="&lt;b&gt;CALL_M_TELEOPERATION&lt;/b&gt;" style="rounded=1;whiteSpace=wrap;html=1;fontSize=12;glass=0;strokeWidth=1;shadow=0;arcSize=0;" vertex="1" parent="dkalc_hDWcm7XEXlRDou-80">
          <mxGeometry x="470" y="100" width="170" height="40" as="geometry" />
        </mxCell>
        <mxCell id="dkalc_hDWcm7XEXlRDou-13" style="edgeStyle=orthogonalEdgeStyle;rounded=0;orthogonalLoop=1;jettySize=auto;html=1;exitX=0.5;exitY=1;exitDx=0;exitDy=0;entryX=0.5;entryY=0;entryDx=0;entryDy=0;" edge="1" parent="dkalc_hDWcm7XEXlRDou-80" source="dkalc_hDWcm7XEXlRDou-9" target="WIyWlLk6GJQsqaUBKTNV-7">
          <mxGeometry relative="1" as="geometry" />
        </mxCell>
        <mxCell id="dkalc_hDWcm7XEXlRDou-21" value="3" style="edgeLabel;html=1;align=center;verticalAlign=middle;resizable=0;points=[];" vertex="1" connectable="0" parent="dkalc_hDWcm7XEXlRDou-13">
          <mxGeometry x="0.5381" y="2" relative="1" as="geometry">
            <mxPoint as="offset" />
          </mxGeometry>
        </mxCell>
        <mxCell id="dkalc_hDWcm7XEXlRDou-14" style="edgeStyle=orthogonalEdgeStyle;rounded=0;orthogonalLoop=1;jettySize=auto;html=1;exitX=0.5;exitY=1;exitDx=0;exitDy=0;entryX=0.5;entryY=0;entryDx=0;entryDy=0;" edge="1" parent="dkalc_hDWcm7XEXlRDou-80" source="dkalc_hDWcm7XEXlRDou-9" target="dkalc_hDWcm7XEXlRDou-8">
          <mxGeometry relative="1" as="geometry" />
        </mxCell>
        <mxCell id="dkalc_hDWcm7XEXlRDou-22" value="4" style="edgeLabel;html=1;align=center;verticalAlign=middle;resizable=0;points=[];" vertex="1" connectable="0" parent="dkalc_hDWcm7XEXlRDou-14">
          <mxGeometry x="0.8396" y="2" relative="1" as="geometry">
            <mxPoint as="offset" />
          </mxGeometry>
        </mxCell>
        <mxCell id="dkalc_hDWcm7XEXlRDou-15" style="edgeStyle=orthogonalEdgeStyle;rounded=0;orthogonalLoop=1;jettySize=auto;html=1;exitX=0.5;exitY=1;exitDx=0;exitDy=0;entryX=0.5;entryY=0;entryDx=0;entryDy=0;" edge="1" parent="dkalc_hDWcm7XEXlRDou-80" source="dkalc_hDWcm7XEXlRDou-9" target="dkalc_hDWcm7XEXlRDou-6">
          <mxGeometry relative="1" as="geometry" />
        </mxCell>
        <mxCell id="dkalc_hDWcm7XEXlRDou-23" value="5" style="edgeLabel;html=1;align=center;verticalAlign=middle;resizable=0;points=[];" vertex="1" connectable="0" parent="dkalc_hDWcm7XEXlRDou-15">
          <mxGeometry x="0.8987" y="2" relative="1" as="geometry">
            <mxPoint as="offset" />
          </mxGeometry>
        </mxCell>
        <mxCell id="dkalc_hDWcm7XEXlRDou-16" style="edgeStyle=orthogonalEdgeStyle;rounded=0;orthogonalLoop=1;jettySize=auto;html=1;exitX=0.5;exitY=1;exitDx=0;exitDy=0;entryX=0.5;entryY=0;entryDx=0;entryDy=0;" edge="1" parent="dkalc_hDWcm7XEXlRDou-80" source="dkalc_hDWcm7XEXlRDou-9" target="dkalc_hDWcm7XEXlRDou-2">
          <mxGeometry relative="1" as="geometry" />
        </mxCell>
        <mxCell id="dkalc_hDWcm7XEXlRDou-20" value="2" style="edgeLabel;html=1;align=center;verticalAlign=middle;resizable=0;points=[];" vertex="1" connectable="0" parent="dkalc_hDWcm7XEXlRDou-16">
          <mxGeometry x="0.8468" y="2" relative="1" as="geometry">
            <mxPoint as="offset" />
          </mxGeometry>
        </mxCell>
        <mxCell id="dkalc_hDWcm7XEXlRDou-9" value="&lt;b&gt;CALL_M_START_ALL&lt;/b&gt;" style="rounded=1;whiteSpace=wrap;html=1;fontSize=12;glass=0;strokeWidth=1;shadow=0;arcSize=0;" vertex="1" parent="dkalc_hDWcm7XEXlRDou-80">
          <mxGeometry x="318" width="170" height="40" as="geometry" />
        </mxCell>
        <mxCell id="dkalc_hDWcm7XEXlRDou-17" style="edgeStyle=orthogonalEdgeStyle;rounded=0;orthogonalLoop=1;jettySize=auto;html=1;exitX=0.5;exitY=1;exitDx=0;exitDy=0;entryX=0.443;entryY=-0.008;entryDx=0;entryDy=0;entryPerimeter=0;" edge="1" parent="dkalc_hDWcm7XEXlRDou-80" source="dkalc_hDWcm7XEXlRDou-9" target="dkalc_hDWcm7XEXlRDou-7">
          <mxGeometry relative="1" as="geometry" />
        </mxCell>
        <mxCell id="dkalc_hDWcm7XEXlRDou-19" value="1" style="edgeLabel;html=1;align=center;verticalAlign=middle;resizable=0;points=[];" vertex="1" connectable="0" parent="dkalc_hDWcm7XEXlRDou-17">
          <mxGeometry x="0.9152" y="1" relative="1" as="geometry">
            <mxPoint as="offset" />
          </mxGeometry>
        </mxCell>
        <mxCell id="dkalc_hDWcm7XEXlRDou-431" value="" style="group" vertex="1" connectable="0" parent="WIyWlLk6GJQsqaUBKTNV-1">
          <mxGeometry x="-870" y="731" width="482" height="140" as="geometry" />
        </mxCell>
        <mxCell id="dkalc_hDWcm7XEXlRDou-432" value="&lt;b&gt;CALL_M_TELEOPERATION&lt;/b&gt;" style="rounded=1;whiteSpace=wrap;html=1;fontSize=12;glass=0;strokeWidth=1;shadow=0;arcSize=0;" vertex="1" parent="dkalc_hDWcm7XEXlRDou-431">
          <mxGeometry x="164" y="50" width="170" height="40" as="geometry" />
        </mxCell>
        <mxCell id="dkalc_hDWcm7XEXlRDou-433" style="edgeStyle=orthogonalEdgeStyle;rounded=0;orthogonalLoop=1;jettySize=auto;html=1;exitX=1;exitY=0.5;exitDx=0;exitDy=0;entryX=0;entryY=0.5;entryDx=0;entryDy=0;" edge="1" parent="dkalc_hDWcm7XEXlRDou-431" source="dkalc_hDWcm7XEXlRDou-434" target="dkalc_hDWcm7XEXlRDou-432">
          <mxGeometry relative="1" as="geometry" />
        </mxCell>
        <mxCell id="dkalc_hDWcm7XEXlRDou-434" value="Joystick" style="shape=trapezoid;perimeter=trapezoidPerimeter;whiteSpace=wrap;html=1;fixedSize=1;size=13;fillColor=#f8cecc;strokeColor=#b85450;fontStyle=1;fontColor=#FF0000;" vertex="1" parent="dkalc_hDWcm7XEXlRDou-431">
          <mxGeometry y="30" width="120" height="30" as="geometry" />
        </mxCell>
        <mxCell id="dkalc_hDWcm7XEXlRDou-435" style="edgeStyle=orthogonalEdgeStyle;rounded=0;orthogonalLoop=1;jettySize=auto;html=1;exitX=1;exitY=0.5;exitDx=0;exitDy=0;" edge="1" parent="dkalc_hDWcm7XEXlRDou-431" source="dkalc_hDWcm7XEXlRDou-436" target="dkalc_hDWcm7XEXlRDou-432">
          <mxGeometry relative="1" as="geometry" />
        </mxCell>
        <mxCell id="dkalc_hDWcm7XEXlRDou-436" value="Keyboard" style="shape=trapezoid;perimeter=trapezoidPerimeter;whiteSpace=wrap;html=1;fixedSize=1;size=13;fillColor=#f8cecc;strokeColor=#b85450;fontStyle=1;fontColor=#FF0000;" vertex="1" parent="dkalc_hDWcm7XEXlRDou-431">
          <mxGeometry y="80" width="120" height="30" as="geometry" />
        </mxCell>
        <mxCell id="dkalc_hDWcm7XEXlRDou-437" value="cmd teleop joystick" style="shape=hexagon;perimeter=hexagonPerimeter2;whiteSpace=wrap;html=1;fixedSize=1;fillColor=#ffe6cc;strokeColor=#d79b00;size=8;fontStyle=2;fontSize=11;" vertex="1" parent="dkalc_hDWcm7XEXlRDou-431">
          <mxGeometry x="360" width="122" height="20" as="geometry" />
        </mxCell>
        <mxCell id="dkalc_hDWcm7XEXlRDou-438" style="edgeStyle=orthogonalEdgeStyle;rounded=0;orthogonalLoop=1;jettySize=auto;html=1;exitX=1;exitY=0.5;exitDx=0;exitDy=0;entryX=0;entryY=0.5;entryDx=0;entryDy=0;" edge="1" parent="dkalc_hDWcm7XEXlRDou-431" source="dkalc_hDWcm7XEXlRDou-432" target="dkalc_hDWcm7XEXlRDou-437">
          <mxGeometry relative="1" as="geometry">
            <Array as="points">
              <mxPoint x="340" y="70" />
              <mxPoint x="340" y="10" />
            </Array>
          </mxGeometry>
        </mxCell>
        <mxCell id="dkalc_hDWcm7XEXlRDou-439" value="cmd cam keyboard" style="shape=hexagon;perimeter=hexagonPerimeter2;whiteSpace=wrap;html=1;fixedSize=1;fillColor=#ffe6cc;strokeColor=#d79b00;size=8;fontStyle=2;fontSize=11;" vertex="1" parent="dkalc_hDWcm7XEXlRDou-431">
          <mxGeometry x="360" y="120" width="122" height="20" as="geometry" />
        </mxCell>
        <mxCell id="dkalc_hDWcm7XEXlRDou-440" style="edgeStyle=orthogonalEdgeStyle;rounded=0;orthogonalLoop=1;jettySize=auto;html=1;exitX=1;exitY=0.5;exitDx=0;exitDy=0;entryX=0;entryY=0.5;entryDx=0;entryDy=0;" edge="1" parent="dkalc_hDWcm7XEXlRDou-431" source="dkalc_hDWcm7XEXlRDou-432" target="dkalc_hDWcm7XEXlRDou-439">
          <mxGeometry relative="1" as="geometry">
            <Array as="points">
              <mxPoint x="340" y="70" />
              <mxPoint x="340" y="130" />
            </Array>
          </mxGeometry>
        </mxCell>
        <mxCell id="dkalc_hDWcm7XEXlRDou-441" value="cmd teleop keyboard" style="shape=hexagon;perimeter=hexagonPerimeter2;whiteSpace=wrap;html=1;fixedSize=1;fillColor=#ffe6cc;strokeColor=#d79b00;size=8;fontStyle=2;fontSize=11;" vertex="1" parent="dkalc_hDWcm7XEXlRDou-431">
          <mxGeometry x="360" y="40" width="122" height="20" as="geometry" />
        </mxCell>
        <mxCell id="dkalc_hDWcm7XEXlRDou-442" style="edgeStyle=orthogonalEdgeStyle;rounded=0;orthogonalLoop=1;jettySize=auto;html=1;exitX=1;exitY=0.5;exitDx=0;exitDy=0;entryX=0;entryY=0.5;entryDx=0;entryDy=0;" edge="1" parent="dkalc_hDWcm7XEXlRDou-431" source="dkalc_hDWcm7XEXlRDou-432" target="dkalc_hDWcm7XEXlRDou-441">
          <mxGeometry relative="1" as="geometry">
            <Array as="points">
              <mxPoint x="340" y="70" />
              <mxPoint x="340" y="50" />
            </Array>
          </mxGeometry>
        </mxCell>
        <mxCell id="dkalc_hDWcm7XEXlRDou-443" value="cmd cam joystick" style="shape=hexagon;perimeter=hexagonPerimeter2;whiteSpace=wrap;html=1;fixedSize=1;fillColor=#ffe6cc;strokeColor=#d79b00;size=8;fontStyle=2;fontSize=11;" vertex="1" parent="dkalc_hDWcm7XEXlRDou-431">
          <mxGeometry x="360" y="80" width="122" height="20" as="geometry" />
        </mxCell>
        <mxCell id="dkalc_hDWcm7XEXlRDou-444" style="edgeStyle=orthogonalEdgeStyle;rounded=0;orthogonalLoop=1;jettySize=auto;html=1;exitX=1;exitY=0.5;exitDx=0;exitDy=0;entryX=0;entryY=0.5;entryDx=0;entryDy=0;" edge="1" parent="dkalc_hDWcm7XEXlRDou-431" source="dkalc_hDWcm7XEXlRDou-432" target="dkalc_hDWcm7XEXlRDou-443">
          <mxGeometry relative="1" as="geometry">
            <Array as="points">
              <mxPoint x="340" y="70" />
              <mxPoint x="340" y="90" />
            </Array>
          </mxGeometry>
        </mxCell>
        <mxCell id="dkalc_hDWcm7XEXlRDou-445" value="" style="group" vertex="1" connectable="0" parent="WIyWlLk6GJQsqaUBKTNV-1">
          <mxGeometry x="-140" y="567.5" width="569.75" height="467" as="geometry" />
        </mxCell>
        <mxCell id="dkalc_hDWcm7XEXlRDou-446" value="&lt;div&gt;Robot description&lt;/div&gt;&lt;div&gt;URDF&lt;br&gt;&lt;/div&gt;" style="shape=note;whiteSpace=wrap;html=1;backgroundOutline=1;darkOpacity=0.05;size=9;fontStyle=1;fillColor=#e1d5e7;strokeColor=#9673a6;fontColor=#6600CC;" vertex="1" parent="dkalc_hDWcm7XEXlRDou-445">
          <mxGeometry y="427" width="122" height="40" as="geometry" />
        </mxCell>
        <mxCell id="dkalc_hDWcm7XEXlRDou-447" value="&lt;b&gt;CALL_M_HARDWARE&lt;br&gt;or&lt;br&gt;CALL_M_SIMULATION&lt;br&gt;&lt;/b&gt;" style="rounded=1;whiteSpace=wrap;html=1;fontSize=12;glass=0;strokeWidth=1;shadow=0;arcSize=0;" vertex="1" parent="dkalc_hDWcm7XEXlRDou-445">
          <mxGeometry x="193.75" y="160" width="156" height="60" as="geometry" />
        </mxCell>
        <mxCell id="dkalc_hDWcm7XEXlRDou-448" style="edgeStyle=orthogonalEdgeStyle;rounded=0;orthogonalLoop=1;jettySize=auto;html=1;exitX=0;exitY=0;exitDx=122;exitDy=24.5;exitPerimeter=0;entryX=0;entryY=0.5;entryDx=0;entryDy=0;" edge="1" parent="dkalc_hDWcm7XEXlRDou-445" source="dkalc_hDWcm7XEXlRDou-446" target="dkalc_hDWcm7XEXlRDou-447">
          <mxGeometry relative="1" as="geometry" />
        </mxCell>
        <mxCell id="dkalc_hDWcm7XEXlRDou-449" style="edgeStyle=orthogonalEdgeStyle;rounded=0;orthogonalLoop=1;jettySize=auto;html=1;exitX=1;exitY=0.5;exitDx=0;exitDy=0;entryX=0;entryY=0.5;entryDx=0;entryDy=0;" edge="1" parent="dkalc_hDWcm7XEXlRDou-445" source="dkalc_hDWcm7XEXlRDou-450" target="dkalc_hDWcm7XEXlRDou-447">
          <mxGeometry relative="1" as="geometry" />
        </mxCell>
        <mxCell id="dkalc_hDWcm7XEXlRDou-450" value="Lidar 1" style="shape=trapezoid;perimeter=trapezoidPerimeter;whiteSpace=wrap;html=1;fixedSize=1;size=13;fillColor=#f8cecc;strokeColor=#b85450;fontStyle=1;fontColor=#FF0000;" vertex="1" parent="dkalc_hDWcm7XEXlRDou-445">
          <mxGeometry x="2" y="40" width="120" height="30" as="geometry" />
        </mxCell>
        <mxCell id="dkalc_hDWcm7XEXlRDou-451" style="edgeStyle=orthogonalEdgeStyle;rounded=0;orthogonalLoop=1;jettySize=auto;html=1;exitX=1;exitY=0.5;exitDx=0;exitDy=0;entryX=0;entryY=0.5;entryDx=0;entryDy=0;" edge="1" parent="dkalc_hDWcm7XEXlRDou-445" source="dkalc_hDWcm7XEXlRDou-452" target="dkalc_hDWcm7XEXlRDou-447">
          <mxGeometry relative="1" as="geometry" />
        </mxCell>
        <mxCell id="dkalc_hDWcm7XEXlRDou-452" value="Lidar 2" style="shape=trapezoid;perimeter=trapezoidPerimeter;whiteSpace=wrap;html=1;fixedSize=1;size=13;fillColor=#f8cecc;strokeColor=#b85450;fontStyle=1;fontColor=#FF0000;" vertex="1" parent="dkalc_hDWcm7XEXlRDou-445">
          <mxGeometry x="2" y="85" width="120" height="30" as="geometry" />
        </mxCell>
        <mxCell id="dkalc_hDWcm7XEXlRDou-453" style="edgeStyle=orthogonalEdgeStyle;rounded=0;orthogonalLoop=1;jettySize=auto;html=1;exitX=1;exitY=0.5;exitDx=0;exitDy=0;entryX=0;entryY=0.5;entryDx=0;entryDy=0;" edge="1" parent="dkalc_hDWcm7XEXlRDou-445" source="dkalc_hDWcm7XEXlRDou-454" target="dkalc_hDWcm7XEXlRDou-447">
          <mxGeometry relative="1" as="geometry" />
        </mxCell>
        <mxCell id="dkalc_hDWcm7XEXlRDou-454" value="Camera 1" style="shape=trapezoid;perimeter=trapezoidPerimeter;whiteSpace=wrap;html=1;fixedSize=1;size=13;fillColor=#f8cecc;strokeColor=#b85450;fontStyle=1;fontColor=#FF0000;" vertex="1" parent="dkalc_hDWcm7XEXlRDou-445">
          <mxGeometry x="2" y="130" width="120" height="30" as="geometry" />
        </mxCell>
        <mxCell id="dkalc_hDWcm7XEXlRDou-455" style="edgeStyle=orthogonalEdgeStyle;rounded=0;orthogonalLoop=1;jettySize=auto;html=1;exitX=1;exitY=0.5;exitDx=0;exitDy=0;" edge="1" parent="dkalc_hDWcm7XEXlRDou-445" source="dkalc_hDWcm7XEXlRDou-456" target="dkalc_hDWcm7XEXlRDou-447">
          <mxGeometry relative="1" as="geometry" />
        </mxCell>
        <mxCell id="dkalc_hDWcm7XEXlRDou-456" value="Camera 2" style="shape=trapezoid;perimeter=trapezoidPerimeter;whiteSpace=wrap;html=1;fixedSize=1;size=13;fillColor=#f8cecc;strokeColor=#b85450;fontStyle=1;fontColor=#FF0000;" vertex="1" parent="dkalc_hDWcm7XEXlRDou-445">
          <mxGeometry x="2" y="175" width="120" height="30" as="geometry" />
        </mxCell>
        <mxCell id="dkalc_hDWcm7XEXlRDou-457" style="edgeStyle=orthogonalEdgeStyle;rounded=0;orthogonalLoop=1;jettySize=auto;html=1;exitX=1;exitY=0.5;exitDx=0;exitDy=0;entryX=0;entryY=0.5;entryDx=0;entryDy=0;" edge="1" parent="dkalc_hDWcm7XEXlRDou-445" source="dkalc_hDWcm7XEXlRDou-458" target="dkalc_hDWcm7XEXlRDou-447">
          <mxGeometry relative="1" as="geometry" />
        </mxCell>
        <mxCell id="dkalc_hDWcm7XEXlRDou-458" value="Servo 1 " style="shape=trapezoid;perimeter=trapezoidPerimeter;whiteSpace=wrap;html=1;fixedSize=1;size=13;fillColor=#f8cecc;strokeColor=#b85450;fontStyle=1;fontColor=#FF0000;" vertex="1" parent="dkalc_hDWcm7XEXlRDou-445">
          <mxGeometry x="2" y="220" width="120" height="30" as="geometry" />
        </mxCell>
        <mxCell id="dkalc_hDWcm7XEXlRDou-459" style="edgeStyle=orthogonalEdgeStyle;rounded=0;orthogonalLoop=1;jettySize=auto;html=1;exitX=1;exitY=0.5;exitDx=0;exitDy=0;entryX=0;entryY=0.5;entryDx=0;entryDy=0;" edge="1" parent="dkalc_hDWcm7XEXlRDou-445" source="dkalc_hDWcm7XEXlRDou-460" target="dkalc_hDWcm7XEXlRDou-447">
          <mxGeometry relative="1" as="geometry" />
        </mxCell>
        <mxCell id="dkalc_hDWcm7XEXlRDou-460" value="Servo 2 " style="shape=trapezoid;perimeter=trapezoidPerimeter;whiteSpace=wrap;html=1;fixedSize=1;size=13;fillColor=#f8cecc;strokeColor=#b85450;fontStyle=1;fontColor=#FF0000;" vertex="1" parent="dkalc_hDWcm7XEXlRDou-445">
          <mxGeometry x="2" y="260" width="120" height="30" as="geometry" />
        </mxCell>
        <mxCell id="dkalc_hDWcm7XEXlRDou-461" style="edgeStyle=orthogonalEdgeStyle;rounded=0;orthogonalLoop=1;jettySize=auto;html=1;exitX=1;exitY=0.5;exitDx=0;exitDy=0;entryX=0;entryY=0.5;entryDx=0;entryDy=0;" edge="1" parent="dkalc_hDWcm7XEXlRDou-445" source="dkalc_hDWcm7XEXlRDou-462" target="dkalc_hDWcm7XEXlRDou-447">
          <mxGeometry relative="1" as="geometry" />
        </mxCell>
        <mxCell id="dkalc_hDWcm7XEXlRDou-462" value="Triorb" style="shape=trapezoid;perimeter=trapezoidPerimeter;whiteSpace=wrap;html=1;fixedSize=1;size=13;fillColor=#f8cecc;strokeColor=#b85450;fontStyle=1;fontColor=#FF0000;" vertex="1" parent="dkalc_hDWcm7XEXlRDou-445">
          <mxGeometry x="2" width="120" height="30" as="geometry" />
        </mxCell>
        <mxCell id="dkalc_hDWcm7XEXlRDou-463" style="edgeStyle=orthogonalEdgeStyle;rounded=0;orthogonalLoop=1;jettySize=auto;html=1;exitX=1;exitY=0.5;exitDx=0;exitDy=0;entryX=0;entryY=0.5;entryDx=0;entryDy=0;" edge="1" parent="dkalc_hDWcm7XEXlRDou-445" source="dkalc_hDWcm7XEXlRDou-464" target="dkalc_hDWcm7XEXlRDou-447">
          <mxGeometry relative="1" as="geometry" />
        </mxCell>
        <mxCell id="dkalc_hDWcm7XEXlRDou-464" value="cmd TriOrb" style="shape=hexagon;perimeter=hexagonPerimeter2;whiteSpace=wrap;html=1;fixedSize=1;fillColor=#d5e8d4;strokeColor=#82b366;size=8;fontStyle=2;fontColor=#000000;fontSize=11;" vertex="1" parent="dkalc_hDWcm7XEXlRDou-445">
          <mxGeometry x="14" y="307" width="108" height="20" as="geometry" />
        </mxCell>
        <mxCell id="dkalc_hDWcm7XEXlRDou-465" style="edgeStyle=orthogonalEdgeStyle;rounded=0;orthogonalLoop=1;jettySize=auto;html=1;exitX=1;exitY=0.5;exitDx=0;exitDy=0;entryX=0;entryY=0.5;entryDx=0;entryDy=0;" edge="1" parent="dkalc_hDWcm7XEXlRDou-445" source="dkalc_hDWcm7XEXlRDou-466" target="dkalc_hDWcm7XEXlRDou-447">
          <mxGeometry relative="1" as="geometry" />
        </mxCell>
        <mxCell id="dkalc_hDWcm7XEXlRDou-466" value="/tf robot state" style="shape=hexagon;perimeter=hexagonPerimeter2;whiteSpace=wrap;html=1;fixedSize=1;fillColor=#d5e8d4;strokeColor=#82b366;size=8;fontStyle=2;fontColor=#000000;fontSize=11;" vertex="1" parent="dkalc_hDWcm7XEXlRDou-445">
          <mxGeometry x="14" y="337" width="108" height="20" as="geometry" />
        </mxCell>
        <mxCell id="dkalc_hDWcm7XEXlRDou-467" style="edgeStyle=orthogonalEdgeStyle;rounded=0;orthogonalLoop=1;jettySize=auto;html=1;exitX=1;exitY=0.5;exitDx=0;exitDy=0;entryX=0;entryY=0.5;entryDx=0;entryDy=0;" edge="1" parent="dkalc_hDWcm7XEXlRDou-445" source="dkalc_hDWcm7XEXlRDou-468" target="dkalc_hDWcm7XEXlRDou-447">
          <mxGeometry relative="1" as="geometry" />
        </mxCell>
        <mxCell id="dkalc_hDWcm7XEXlRDou-468" value="cmd cam joystick" style="shape=hexagon;perimeter=hexagonPerimeter2;whiteSpace=wrap;html=1;fixedSize=1;fillColor=#d5e8d4;strokeColor=#82b366;size=8;fontStyle=2;fontColor=#000000;fontSize=11;" vertex="1" parent="dkalc_hDWcm7XEXlRDou-445">
          <mxGeometry x="14" y="367" width="108" height="20" as="geometry" />
        </mxCell>
        <mxCell id="dkalc_hDWcm7XEXlRDou-469" style="edgeStyle=orthogonalEdgeStyle;rounded=0;orthogonalLoop=1;jettySize=auto;html=1;exitX=1;exitY=0.5;exitDx=0;exitDy=0;entryX=0;entryY=0.5;entryDx=0;entryDy=0;" edge="1" parent="dkalc_hDWcm7XEXlRDou-445" source="dkalc_hDWcm7XEXlRDou-470" target="dkalc_hDWcm7XEXlRDou-447">
          <mxGeometry relative="1" as="geometry" />
        </mxCell>
        <mxCell id="dkalc_hDWcm7XEXlRDou-470" value="cmd cam keyboard" style="shape=hexagon;perimeter=hexagonPerimeter2;whiteSpace=wrap;html=1;fixedSize=1;fillColor=#d5e8d4;strokeColor=#82b366;size=8;fontStyle=2;fontColor=#000000;fontSize=11;" vertex="1" parent="dkalc_hDWcm7XEXlRDou-445">
          <mxGeometry x="14" y="397" width="108" height="20" as="geometry" />
        </mxCell>
        <mxCell id="dkalc_hDWcm7XEXlRDou-471" value="Lidar2 Scan" style="shape=hexagon;perimeter=hexagonPerimeter2;whiteSpace=wrap;html=1;fixedSize=1;fillColor=#ffe6cc;strokeColor=#d79b00;size=8;fontStyle=2;fontSize=11;" vertex="1" parent="dkalc_hDWcm7XEXlRDou-445">
          <mxGeometry x="413.75" y="135" width="122" height="20" as="geometry" />
        </mxCell>
        <mxCell id="dkalc_hDWcm7XEXlRDou-472" style="edgeStyle=orthogonalEdgeStyle;rounded=0;orthogonalLoop=1;jettySize=auto;html=1;exitX=1;exitY=0.5;exitDx=0;exitDy=0;entryX=0;entryY=0.5;entryDx=0;entryDy=0;" edge="1" parent="dkalc_hDWcm7XEXlRDou-445" source="dkalc_hDWcm7XEXlRDou-447" target="dkalc_hDWcm7XEXlRDou-471">
          <mxGeometry relative="1" as="geometry" />
        </mxCell>
        <mxCell id="dkalc_hDWcm7XEXlRDou-473" value="Lidar1 Scan" style="shape=hexagon;perimeter=hexagonPerimeter2;whiteSpace=wrap;html=1;fixedSize=1;fillColor=#ffe6cc;strokeColor=#d79b00;size=8;fontStyle=2;fontSize=11;" vertex="1" parent="dkalc_hDWcm7XEXlRDou-445">
          <mxGeometry x="413.75" y="105" width="122" height="20" as="geometry" />
        </mxCell>
        <mxCell id="dkalc_hDWcm7XEXlRDou-474" style="edgeStyle=orthogonalEdgeStyle;rounded=0;orthogonalLoop=1;jettySize=auto;html=1;exitX=1;exitY=0.5;exitDx=0;exitDy=0;entryX=0;entryY=0.5;entryDx=0;entryDy=0;" edge="1" parent="dkalc_hDWcm7XEXlRDou-445" source="dkalc_hDWcm7XEXlRDou-447" target="dkalc_hDWcm7XEXlRDou-473">
          <mxGeometry relative="1" as="geometry" />
        </mxCell>
        <mxCell id="dkalc_hDWcm7XEXlRDou-475" value="Cam1 data" style="shape=hexagon;perimeter=hexagonPerimeter2;whiteSpace=wrap;html=1;fixedSize=1;fillColor=#ffe6cc;strokeColor=#d79b00;size=8;fontStyle=2;fontSize=11;" vertex="1" parent="dkalc_hDWcm7XEXlRDou-445">
          <mxGeometry x="413.75" y="165" width="122" height="20" as="geometry" />
        </mxCell>
        <mxCell id="dkalc_hDWcm7XEXlRDou-476" style="edgeStyle=orthogonalEdgeStyle;rounded=0;orthogonalLoop=1;jettySize=auto;html=1;exitX=1;exitY=0.5;exitDx=0;exitDy=0;entryX=0;entryY=0.5;entryDx=0;entryDy=0;" edge="1" parent="dkalc_hDWcm7XEXlRDou-445" source="dkalc_hDWcm7XEXlRDou-447" target="dkalc_hDWcm7XEXlRDou-475">
          <mxGeometry relative="1" as="geometry" />
        </mxCell>
        <mxCell id="dkalc_hDWcm7XEXlRDou-477" value="Cam2 data" style="shape=hexagon;perimeter=hexagonPerimeter2;whiteSpace=wrap;html=1;fixedSize=1;fillColor=#ffe6cc;strokeColor=#d79b00;size=8;fontStyle=2;fontSize=11;" vertex="1" parent="dkalc_hDWcm7XEXlRDou-445">
          <mxGeometry x="413.75" y="195" width="122" height="20" as="geometry" />
        </mxCell>
        <mxCell id="dkalc_hDWcm7XEXlRDou-478" style="edgeStyle=orthogonalEdgeStyle;rounded=0;orthogonalLoop=1;jettySize=auto;html=1;exitX=1;exitY=0.5;exitDx=0;exitDy=0;entryX=0;entryY=0.5;entryDx=0;entryDy=0;" edge="1" parent="dkalc_hDWcm7XEXlRDou-445" source="dkalc_hDWcm7XEXlRDou-447" target="dkalc_hDWcm7XEXlRDou-477">
          <mxGeometry relative="1" as="geometry" />
        </mxCell>
        <mxCell id="dkalc_hDWcm7XEXlRDou-479" value="/tf robot joints" style="shape=hexagon;perimeter=hexagonPerimeter2;whiteSpace=wrap;html=1;fixedSize=1;fillColor=#ffe6cc;strokeColor=#d79b00;size=8;fontStyle=2;fontSize=11;" vertex="1" parent="dkalc_hDWcm7XEXlRDou-445">
          <mxGeometry x="413.75" y="225" width="122" height="20" as="geometry" />
        </mxCell>
        <mxCell id="dkalc_hDWcm7XEXlRDou-480" style="edgeStyle=orthogonalEdgeStyle;rounded=0;orthogonalLoop=1;jettySize=auto;html=1;exitX=1;exitY=0.5;exitDx=0;exitDy=0;entryX=0;entryY=0.5;entryDx=0;entryDy=0;" edge="1" parent="dkalc_hDWcm7XEXlRDou-445" source="dkalc_hDWcm7XEXlRDou-447" target="dkalc_hDWcm7XEXlRDou-479">
          <mxGeometry relative="1" as="geometry" />
        </mxCell>
        <mxCell id="dkalc_hDWcm7XEXlRDou-481" value="/tf odom-&amp;gt;base_link EKF" style="shape=hexagon;perimeter=hexagonPerimeter2;whiteSpace=wrap;html=1;fixedSize=1;fillColor=#ffe6cc;strokeColor=#d79b00;size=8;fontStyle=2;fontSize=11;" vertex="1" parent="dkalc_hDWcm7XEXlRDou-445">
          <mxGeometry x="413.75" y="255" width="156" height="20" as="geometry" />
        </mxCell>
        <mxCell id="dkalc_hDWcm7XEXlRDou-482" style="edgeStyle=orthogonalEdgeStyle;rounded=0;orthogonalLoop=1;jettySize=auto;html=1;exitX=1;exitY=0.5;exitDx=0;exitDy=0;entryX=0;entryY=0.5;entryDx=0;entryDy=0;" edge="1" parent="dkalc_hDWcm7XEXlRDou-445" source="dkalc_hDWcm7XEXlRDou-447" target="dkalc_hDWcm7XEXlRDou-481">
          <mxGeometry relative="1" as="geometry" />
        </mxCell>
        <mxCell id="dkalc_hDWcm7XEXlRDou-483" value="" style="group" vertex="1" connectable="0" parent="WIyWlLk6GJQsqaUBKTNV-1">
          <mxGeometry x="1241" y="-230" width="570.75" height="509" as="geometry" />
        </mxCell>
        <mxCell id="dkalc_hDWcm7XEXlRDou-484" value="&lt;div&gt;World description&lt;/div&gt;&lt;div&gt;SDF&lt;br&gt;&lt;/div&gt;" style="shape=note;whiteSpace=wrap;html=1;backgroundOutline=1;darkOpacity=0.05;size=9;fontStyle=1;fillColor=#e1d5e7;strokeColor=#9673a6;fontColor=#6600CC;" vertex="1" parent="dkalc_hDWcm7XEXlRDou-483">
          <mxGeometry y="469" width="122" height="40" as="geometry" />
        </mxCell>
        <mxCell id="dkalc_hDWcm7XEXlRDou-485" value="&lt;b&gt;CALL_M_SIMULATION&lt;/b&gt;" style="rounded=1;whiteSpace=wrap;html=1;fontSize=12;glass=0;strokeWidth=1;shadow=0;arcSize=0;" vertex="1" parent="dkalc_hDWcm7XEXlRDou-483">
          <mxGeometry x="194.75" y="210" width="156" height="40" as="geometry" />
        </mxCell>
        <mxCell id="dkalc_hDWcm7XEXlRDou-486" style="edgeStyle=orthogonalEdgeStyle;rounded=0;orthogonalLoop=1;jettySize=auto;html=1;exitX=0;exitY=0;exitDx=122;exitDy=24.5;exitPerimeter=0;entryX=0;entryY=0.5;entryDx=0;entryDy=0;" edge="1" parent="dkalc_hDWcm7XEXlRDou-483" source="dkalc_hDWcm7XEXlRDou-484" target="dkalc_hDWcm7XEXlRDou-485">
          <mxGeometry relative="1" as="geometry" />
        </mxCell>
        <mxCell id="dkalc_hDWcm7XEXlRDou-487" style="edgeStyle=orthogonalEdgeStyle;rounded=0;orthogonalLoop=1;jettySize=auto;html=1;exitX=1;exitY=0.5;exitDx=0;exitDy=0;entryX=0;entryY=0.5;entryDx=0;entryDy=0;" edge="1" parent="dkalc_hDWcm7XEXlRDou-483" source="dkalc_hDWcm7XEXlRDou-488" target="dkalc_hDWcm7XEXlRDou-485">
          <mxGeometry relative="1" as="geometry" />
        </mxCell>
        <mxCell id="dkalc_hDWcm7XEXlRDou-488" value="Simu Lidar 1" style="shape=trapezoid;perimeter=trapezoidPerimeter;whiteSpace=wrap;html=1;fixedSize=1;size=13;fillColor=#f8cecc;strokeColor=#b85450;fontStyle=1;fontColor=#FF0000;" vertex="1" parent="dkalc_hDWcm7XEXlRDou-483">
          <mxGeometry x="3" y="80" width="120" height="30" as="geometry" />
        </mxCell>
        <mxCell id="dkalc_hDWcm7XEXlRDou-489" style="edgeStyle=orthogonalEdgeStyle;rounded=0;orthogonalLoop=1;jettySize=auto;html=1;exitX=1;exitY=0.5;exitDx=0;exitDy=0;entryX=0;entryY=0.5;entryDx=0;entryDy=0;" edge="1" parent="dkalc_hDWcm7XEXlRDou-483" source="dkalc_hDWcm7XEXlRDou-490" target="dkalc_hDWcm7XEXlRDou-485">
          <mxGeometry relative="1" as="geometry" />
        </mxCell>
        <mxCell id="dkalc_hDWcm7XEXlRDou-490" value="Simu Lidar 2" style="shape=trapezoid;perimeter=trapezoidPerimeter;whiteSpace=wrap;html=1;fixedSize=1;size=13;fillColor=#f8cecc;strokeColor=#b85450;fontStyle=1;fontColor=#FF0000;" vertex="1" parent="dkalc_hDWcm7XEXlRDou-483">
          <mxGeometry x="3" y="125" width="120" height="30" as="geometry" />
        </mxCell>
        <mxCell id="dkalc_hDWcm7XEXlRDou-491" style="edgeStyle=orthogonalEdgeStyle;rounded=0;orthogonalLoop=1;jettySize=auto;html=1;exitX=1;exitY=0.5;exitDx=0;exitDy=0;entryX=0;entryY=0.5;entryDx=0;entryDy=0;" edge="1" parent="dkalc_hDWcm7XEXlRDou-483" source="dkalc_hDWcm7XEXlRDou-492" target="dkalc_hDWcm7XEXlRDou-485">
          <mxGeometry relative="1" as="geometry" />
        </mxCell>
        <mxCell id="dkalc_hDWcm7XEXlRDou-492" value="Simu Camera 1" style="shape=trapezoid;perimeter=trapezoidPerimeter;whiteSpace=wrap;html=1;fixedSize=1;size=13;fillColor=#f8cecc;strokeColor=#b85450;fontStyle=1;fontColor=#FF0000;" vertex="1" parent="dkalc_hDWcm7XEXlRDou-483">
          <mxGeometry x="3" y="170" width="120" height="30" as="geometry" />
        </mxCell>
        <mxCell id="dkalc_hDWcm7XEXlRDou-493" style="edgeStyle=orthogonalEdgeStyle;rounded=0;orthogonalLoop=1;jettySize=auto;html=1;exitX=1;exitY=0.5;exitDx=0;exitDy=0;" edge="1" parent="dkalc_hDWcm7XEXlRDou-483" source="dkalc_hDWcm7XEXlRDou-494" target="dkalc_hDWcm7XEXlRDou-485">
          <mxGeometry relative="1" as="geometry" />
        </mxCell>
        <mxCell id="dkalc_hDWcm7XEXlRDou-494" value="Simu Camera 2" style="shape=trapezoid;perimeter=trapezoidPerimeter;whiteSpace=wrap;html=1;fixedSize=1;size=13;fillColor=#f8cecc;strokeColor=#b85450;fontStyle=1;fontColor=#FF0000;" vertex="1" parent="dkalc_hDWcm7XEXlRDou-483">
          <mxGeometry x="3" y="215" width="120" height="30" as="geometry" />
        </mxCell>
        <mxCell id="dkalc_hDWcm7XEXlRDou-495" style="edgeStyle=orthogonalEdgeStyle;rounded=0;orthogonalLoop=1;jettySize=auto;html=1;exitX=1;exitY=0.5;exitDx=0;exitDy=0;entryX=0;entryY=0.5;entryDx=0;entryDy=0;" edge="1" parent="dkalc_hDWcm7XEXlRDou-483" source="dkalc_hDWcm7XEXlRDou-496" target="dkalc_hDWcm7XEXlRDou-485">
          <mxGeometry relative="1" as="geometry" />
        </mxCell>
        <mxCell id="dkalc_hDWcm7XEXlRDou-496" value="Simu Servo 1 " style="shape=trapezoid;perimeter=trapezoidPerimeter;whiteSpace=wrap;html=1;fixedSize=1;size=13;fillColor=#f8cecc;strokeColor=#b85450;fontStyle=1;fontColor=#FF0000;" vertex="1" parent="dkalc_hDWcm7XEXlRDou-483">
          <mxGeometry x="3" y="260" width="120" height="30" as="geometry" />
        </mxCell>
        <mxCell id="dkalc_hDWcm7XEXlRDou-497" style="edgeStyle=orthogonalEdgeStyle;rounded=0;orthogonalLoop=1;jettySize=auto;html=1;exitX=1;exitY=0.5;exitDx=0;exitDy=0;entryX=0;entryY=0.5;entryDx=0;entryDy=0;" edge="1" parent="dkalc_hDWcm7XEXlRDou-483" source="dkalc_hDWcm7XEXlRDou-498" target="dkalc_hDWcm7XEXlRDou-485">
          <mxGeometry relative="1" as="geometry" />
        </mxCell>
        <mxCell id="dkalc_hDWcm7XEXlRDou-498" value="Simu Servo 2 " style="shape=trapezoid;perimeter=trapezoidPerimeter;whiteSpace=wrap;html=1;fixedSize=1;size=13;fillColor=#f8cecc;strokeColor=#b85450;fontStyle=1;fontColor=#FF0000;" vertex="1" parent="dkalc_hDWcm7XEXlRDou-483">
          <mxGeometry x="3" y="300" width="120" height="30" as="geometry" />
        </mxCell>
        <mxCell id="dkalc_hDWcm7XEXlRDou-499" style="edgeStyle=orthogonalEdgeStyle;rounded=0;orthogonalLoop=1;jettySize=auto;html=1;exitX=1;exitY=0.5;exitDx=0;exitDy=0;entryX=0;entryY=0.5;entryDx=0;entryDy=0;" edge="1" parent="dkalc_hDWcm7XEXlRDou-483" source="dkalc_hDWcm7XEXlRDou-500" target="dkalc_hDWcm7XEXlRDou-485">
          <mxGeometry relative="1" as="geometry" />
        </mxCell>
        <mxCell id="dkalc_hDWcm7XEXlRDou-500" value="Simu Triorb" style="shape=trapezoid;perimeter=trapezoidPerimeter;whiteSpace=wrap;html=1;fixedSize=1;size=13;fillColor=#f8cecc;strokeColor=#b85450;fontStyle=1;fontColor=#FF0000;" vertex="1" parent="dkalc_hDWcm7XEXlRDou-483">
          <mxGeometry x="3" y="40" width="120" height="30" as="geometry" />
        </mxCell>
        <mxCell id="dkalc_hDWcm7XEXlRDou-501" style="edgeStyle=orthogonalEdgeStyle;rounded=0;orthogonalLoop=1;jettySize=auto;html=1;exitX=1;exitY=0.5;exitDx=0;exitDy=0;entryX=0;entryY=0.5;entryDx=0;entryDy=0;" edge="1" parent="dkalc_hDWcm7XEXlRDou-483" source="dkalc_hDWcm7XEXlRDou-502" target="dkalc_hDWcm7XEXlRDou-485">
          <mxGeometry relative="1" as="geometry" />
        </mxCell>
        <mxCell id="dkalc_hDWcm7XEXlRDou-502" value="/tf robot state" style="shape=hexagon;perimeter=hexagonPerimeter2;whiteSpace=wrap;html=1;fixedSize=1;fillColor=#d5e8d4;strokeColor=#82b366;size=8;fontStyle=2;fontColor=#000000;fontSize=11;" vertex="1" parent="dkalc_hDWcm7XEXlRDou-483">
          <mxGeometry x="15" y="345" width="108" height="20" as="geometry" />
        </mxCell>
        <mxCell id="dkalc_hDWcm7XEXlRDou-503" style="edgeStyle=orthogonalEdgeStyle;rounded=0;orthogonalLoop=1;jettySize=auto;html=1;exitX=1;exitY=0.5;exitDx=0;exitDy=0;entryX=0;entryY=0.5;entryDx=0;entryDy=0;" edge="1" parent="dkalc_hDWcm7XEXlRDou-483" source="dkalc_hDWcm7XEXlRDou-504" target="dkalc_hDWcm7XEXlRDou-485">
          <mxGeometry relative="1" as="geometry" />
        </mxCell>
        <mxCell id="dkalc_hDWcm7XEXlRDou-504" value="cmd TriOrb" style="shape=hexagon;perimeter=hexagonPerimeter2;whiteSpace=wrap;html=1;fixedSize=1;fillColor=#d5e8d4;strokeColor=#82b366;size=8;fontStyle=2;fontColor=#000000;fontSize=11;" vertex="1" parent="dkalc_hDWcm7XEXlRDou-483">
          <mxGeometry x="15" y="375" width="108" height="20" as="geometry" />
        </mxCell>
        <mxCell id="dkalc_hDWcm7XEXlRDou-505" style="edgeStyle=orthogonalEdgeStyle;rounded=0;orthogonalLoop=1;jettySize=auto;html=1;exitX=1;exitY=0.5;exitDx=0;exitDy=0;entryX=0;entryY=0.5;entryDx=0;entryDy=0;" edge="1" parent="dkalc_hDWcm7XEXlRDou-483" source="dkalc_hDWcm7XEXlRDou-506" target="dkalc_hDWcm7XEXlRDou-485">
          <mxGeometry relative="1" as="geometry" />
        </mxCell>
        <mxCell id="dkalc_hDWcm7XEXlRDou-506" value="cmd cam joystick" style="shape=hexagon;perimeter=hexagonPerimeter2;whiteSpace=wrap;html=1;fixedSize=1;fillColor=#d5e8d4;strokeColor=#82b366;size=8;fontStyle=2;fontColor=#000000;fontSize=11;" vertex="1" parent="dkalc_hDWcm7XEXlRDou-483">
          <mxGeometry x="15" y="405" width="108" height="20" as="geometry" />
        </mxCell>
        <mxCell id="dkalc_hDWcm7XEXlRDou-507" style="edgeStyle=orthogonalEdgeStyle;rounded=0;orthogonalLoop=1;jettySize=auto;html=1;exitX=1;exitY=0.5;exitDx=0;exitDy=0;entryX=0;entryY=0.5;entryDx=0;entryDy=0;" edge="1" parent="dkalc_hDWcm7XEXlRDou-483" source="dkalc_hDWcm7XEXlRDou-508" target="dkalc_hDWcm7XEXlRDou-485">
          <mxGeometry relative="1" as="geometry" />
        </mxCell>
        <mxCell id="dkalc_hDWcm7XEXlRDou-508" value="cmd cam keyboard" style="shape=hexagon;perimeter=hexagonPerimeter2;whiteSpace=wrap;html=1;fixedSize=1;fillColor=#d5e8d4;strokeColor=#82b366;size=8;fontStyle=2;fontColor=#000000;fontSize=11;" vertex="1" parent="dkalc_hDWcm7XEXlRDou-483">
          <mxGeometry x="15" y="435" width="108" height="20" as="geometry" />
        </mxCell>
        <mxCell id="dkalc_hDWcm7XEXlRDou-509" value="Lidar2 Scan" style="shape=hexagon;perimeter=hexagonPerimeter2;whiteSpace=wrap;html=1;fixedSize=1;fillColor=#ffe6cc;strokeColor=#d79b00;size=8;fontStyle=2;fontSize=11;" vertex="1" parent="dkalc_hDWcm7XEXlRDou-483">
          <mxGeometry x="414.75" y="168" width="122" height="20" as="geometry" />
        </mxCell>
        <mxCell id="dkalc_hDWcm7XEXlRDou-510" style="edgeStyle=orthogonalEdgeStyle;rounded=0;orthogonalLoop=1;jettySize=auto;html=1;exitX=1;exitY=0.5;exitDx=0;exitDy=0;entryX=0;entryY=0.5;entryDx=0;entryDy=0;" edge="1" parent="dkalc_hDWcm7XEXlRDou-483" source="dkalc_hDWcm7XEXlRDou-485" target="dkalc_hDWcm7XEXlRDou-509">
          <mxGeometry relative="1" as="geometry" />
        </mxCell>
        <mxCell id="dkalc_hDWcm7XEXlRDou-511" value="Lidar1 Scan" style="shape=hexagon;perimeter=hexagonPerimeter2;whiteSpace=wrap;html=1;fixedSize=1;fillColor=#ffe6cc;strokeColor=#d79b00;size=8;fontStyle=2;fontSize=11;" vertex="1" parent="dkalc_hDWcm7XEXlRDou-483">
          <mxGeometry x="414.75" y="138" width="122" height="20" as="geometry" />
        </mxCell>
        <mxCell id="dkalc_hDWcm7XEXlRDou-512" style="edgeStyle=orthogonalEdgeStyle;rounded=0;orthogonalLoop=1;jettySize=auto;html=1;exitX=1;exitY=0.5;exitDx=0;exitDy=0;entryX=0;entryY=0.5;entryDx=0;entryDy=0;" edge="1" parent="dkalc_hDWcm7XEXlRDou-483" source="dkalc_hDWcm7XEXlRDou-485" target="dkalc_hDWcm7XEXlRDou-511">
          <mxGeometry relative="1" as="geometry" />
        </mxCell>
        <mxCell id="dkalc_hDWcm7XEXlRDou-513" value="Cam1 data" style="shape=hexagon;perimeter=hexagonPerimeter2;whiteSpace=wrap;html=1;fixedSize=1;fillColor=#ffe6cc;strokeColor=#d79b00;size=8;fontStyle=2;fontSize=11;" vertex="1" parent="dkalc_hDWcm7XEXlRDou-483">
          <mxGeometry x="414.75" y="198" width="122" height="20" as="geometry" />
        </mxCell>
        <mxCell id="dkalc_hDWcm7XEXlRDou-514" style="edgeStyle=orthogonalEdgeStyle;rounded=0;orthogonalLoop=1;jettySize=auto;html=1;exitX=1;exitY=0.5;exitDx=0;exitDy=0;entryX=0;entryY=0.5;entryDx=0;entryDy=0;" edge="1" parent="dkalc_hDWcm7XEXlRDou-483" source="dkalc_hDWcm7XEXlRDou-485" target="dkalc_hDWcm7XEXlRDou-513">
          <mxGeometry relative="1" as="geometry" />
        </mxCell>
        <mxCell id="dkalc_hDWcm7XEXlRDou-515" value="Cam2 data" style="shape=hexagon;perimeter=hexagonPerimeter2;whiteSpace=wrap;html=1;fixedSize=1;fillColor=#ffe6cc;strokeColor=#d79b00;size=8;fontStyle=2;fontSize=11;" vertex="1" parent="dkalc_hDWcm7XEXlRDou-483">
          <mxGeometry x="414.75" y="228" width="122" height="20" as="geometry" />
        </mxCell>
        <mxCell id="dkalc_hDWcm7XEXlRDou-516" style="edgeStyle=orthogonalEdgeStyle;rounded=0;orthogonalLoop=1;jettySize=auto;html=1;exitX=1;exitY=0.5;exitDx=0;exitDy=0;entryX=0;entryY=0.5;entryDx=0;entryDy=0;" edge="1" parent="dkalc_hDWcm7XEXlRDou-483" source="dkalc_hDWcm7XEXlRDou-485" target="dkalc_hDWcm7XEXlRDou-515">
          <mxGeometry relative="1" as="geometry" />
        </mxCell>
        <mxCell id="dkalc_hDWcm7XEXlRDou-517" value="/tf robot joints" style="shape=hexagon;perimeter=hexagonPerimeter2;whiteSpace=wrap;html=1;fixedSize=1;fillColor=#ffe6cc;strokeColor=#d79b00;size=8;fontStyle=2;fontSize=11;" vertex="1" parent="dkalc_hDWcm7XEXlRDou-483">
          <mxGeometry x="414.75" y="258" width="122" height="20" as="geometry" />
        </mxCell>
        <mxCell id="dkalc_hDWcm7XEXlRDou-518" style="edgeStyle=orthogonalEdgeStyle;rounded=0;orthogonalLoop=1;jettySize=auto;html=1;exitX=1;exitY=0.5;exitDx=0;exitDy=0;entryX=0;entryY=0.5;entryDx=0;entryDy=0;" edge="1" parent="dkalc_hDWcm7XEXlRDou-483" source="dkalc_hDWcm7XEXlRDou-485" target="dkalc_hDWcm7XEXlRDou-517">
          <mxGeometry relative="1" as="geometry" />
        </mxCell>
        <mxCell id="dkalc_hDWcm7XEXlRDou-519" value="/tf odom-&amp;gt;base_link EKF" style="shape=hexagon;perimeter=hexagonPerimeter2;whiteSpace=wrap;html=1;fixedSize=1;fillColor=#ffe6cc;strokeColor=#d79b00;size=8;fontStyle=2;fontSize=11;" vertex="1" parent="dkalc_hDWcm7XEXlRDou-483">
          <mxGeometry x="414.75" y="288" width="156" height="20" as="geometry" />
        </mxCell>
        <mxCell id="dkalc_hDWcm7XEXlRDou-520" style="edgeStyle=orthogonalEdgeStyle;rounded=0;orthogonalLoop=1;jettySize=auto;html=1;exitX=1;exitY=0.5;exitDx=0;exitDy=0;entryX=0;entryY=0.5;entryDx=0;entryDy=0;" edge="1" parent="dkalc_hDWcm7XEXlRDou-483" source="dkalc_hDWcm7XEXlRDou-485" target="dkalc_hDWcm7XEXlRDou-519">
          <mxGeometry relative="1" as="geometry" />
        </mxCell>
        <mxCell id="dkalc_hDWcm7XEXlRDou-521" style="edgeStyle=orthogonalEdgeStyle;rounded=0;orthogonalLoop=1;jettySize=auto;html=1;exitX=1;exitY=0.5;exitDx=0;exitDy=0;entryX=0;entryY=0.5;entryDx=0;entryDy=0;" edge="1" parent="dkalc_hDWcm7XEXlRDou-483" source="dkalc_hDWcm7XEXlRDou-522" target="dkalc_hDWcm7XEXlRDou-485">
          <mxGeometry relative="1" as="geometry" />
        </mxCell>
        <mxCell id="dkalc_hDWcm7XEXlRDou-522" value="Simu IMU" style="shape=trapezoid;perimeter=trapezoidPerimeter;whiteSpace=wrap;html=1;fixedSize=1;size=13;fillColor=#f8cecc;strokeColor=#b85450;fontStyle=1;fontColor=#FF0000;" vertex="1" parent="dkalc_hDWcm7XEXlRDou-483">
          <mxGeometry x="3" width="120" height="30" as="geometry" />
        </mxCell>
        <mxCell id="dkalc_hDWcm7XEXlRDou-539" value="" style="group" vertex="1" connectable="0" parent="WIyWlLk6GJQsqaUBKTNV-1">
          <mxGeometry x="724.13" y="921" width="479.7500000000001" height="250" as="geometry" />
        </mxCell>
        <mxCell id="dkalc_hDWcm7XEXlRDou-524" value="&lt;b&gt;CALL_M_NAV2&lt;/b&gt;" style="rounded=1;whiteSpace=wrap;html=1;fontSize=12;glass=0;strokeWidth=1;shadow=0;arcSize=0;" vertex="1" parent="dkalc_hDWcm7XEXlRDou-539">
          <mxGeometry x="180.75" y="80" width="156" height="40" as="geometry" />
        </mxCell>
        <mxCell id="dkalc_hDWcm7XEXlRDou-525" style="edgeStyle=orthogonalEdgeStyle;rounded=0;orthogonalLoop=1;jettySize=auto;html=1;exitX=1;exitY=0.5;exitDx=0;exitDy=0;entryX=0;entryY=0.5;entryDx=0;entryDy=0;" edge="1" parent="dkalc_hDWcm7XEXlRDou-539" source="dkalc_hDWcm7XEXlRDou-526" target="dkalc_hDWcm7XEXlRDou-524">
          <mxGeometry relative="1" as="geometry">
            <Array as="points">
              <mxPoint x="160.75" y="55" />
              <mxPoint x="160.75" y="100" />
            </Array>
          </mxGeometry>
        </mxCell>
        <mxCell id="dkalc_hDWcm7XEXlRDou-526" value="/tf odom-&amp;gt;base_link EKF" style="shape=hexagon;perimeter=hexagonPerimeter2;whiteSpace=wrap;html=1;fixedSize=1;fillColor=#d5e8d4;strokeColor=#82b366;size=8;fontStyle=2;fontColor=#000000;fontSize=11;" vertex="1" parent="dkalc_hDWcm7XEXlRDou-539">
          <mxGeometry y="45" width="144" height="20" as="geometry" />
        </mxCell>
        <mxCell id="dkalc_hDWcm7XEXlRDou-527" style="edgeStyle=orthogonalEdgeStyle;rounded=0;orthogonalLoop=1;jettySize=auto;html=1;exitX=1;exitY=0.5;exitDx=0;exitDy=0;entryX=0;entryY=0.5;entryDx=0;entryDy=0;" edge="1" parent="dkalc_hDWcm7XEXlRDou-539" source="dkalc_hDWcm7XEXlRDou-528" target="dkalc_hDWcm7XEXlRDou-524">
          <mxGeometry relative="1" as="geometry" />
        </mxCell>
        <mxCell id="dkalc_hDWcm7XEXlRDou-528" value="/tf map-&amp;gt;odom SLAM" style="shape=hexagon;perimeter=hexagonPerimeter2;whiteSpace=wrap;html=1;fixedSize=1;fillColor=#d5e8d4;strokeColor=#82b366;size=8;fontStyle=2;fontSize=11;" vertex="1" parent="dkalc_hDWcm7XEXlRDou-539">
          <mxGeometry x="21.5" y="90" width="122.5" height="20" as="geometry" />
        </mxCell>
        <mxCell id="dkalc_hDWcm7XEXlRDou-529" style="edgeStyle=orthogonalEdgeStyle;rounded=0;orthogonalLoop=1;jettySize=auto;html=1;exitX=1;exitY=0.5;exitDx=0;exitDy=0;entryX=0;entryY=0.5;entryDx=0;entryDy=0;" edge="1" parent="dkalc_hDWcm7XEXlRDou-539" source="dkalc_hDWcm7XEXlRDou-530" target="dkalc_hDWcm7XEXlRDou-524">
          <mxGeometry relative="1" as="geometry">
            <Array as="points">
              <mxPoint x="160.75" y="145" />
              <mxPoint x="160.75" y="100" />
            </Array>
          </mxGeometry>
        </mxCell>
        <mxCell id="dkalc_hDWcm7XEXlRDou-530" value="Lidar2 Scan" style="shape=hexagon;perimeter=hexagonPerimeter2;whiteSpace=wrap;html=1;fixedSize=1;fillColor=#d5e8d4;strokeColor=#82b366;size=8;fontStyle=2;fontColor=#000000;fontSize=11;" vertex="1" parent="dkalc_hDWcm7XEXlRDou-539">
          <mxGeometry y="135" width="144" height="20" as="geometry" />
        </mxCell>
        <mxCell id="dkalc_hDWcm7XEXlRDou-531" style="edgeStyle=orthogonalEdgeStyle;rounded=0;orthogonalLoop=1;jettySize=auto;html=1;exitX=1;exitY=0.5;exitDx=0;exitDy=0;entryX=0;entryY=0.5;entryDx=0;entryDy=0;" edge="1" parent="dkalc_hDWcm7XEXlRDou-539" source="dkalc_hDWcm7XEXlRDou-532" target="dkalc_hDWcm7XEXlRDou-524">
          <mxGeometry relative="1" as="geometry">
            <Array as="points">
              <mxPoint x="160.75" y="185" />
              <mxPoint x="160.75" y="100" />
            </Array>
          </mxGeometry>
        </mxCell>
        <mxCell id="dkalc_hDWcm7XEXlRDou-532" value="Lidar1 Scan" style="shape=hexagon;perimeter=hexagonPerimeter2;whiteSpace=wrap;html=1;fixedSize=1;fillColor=#d5e8d4;strokeColor=#82b366;size=8;fontStyle=2;fontColor=#000000;fontSize=11;" vertex="1" parent="dkalc_hDWcm7XEXlRDou-539">
          <mxGeometry y="175" width="144" height="20" as="geometry" />
        </mxCell>
        <mxCell id="dkalc_hDWcm7XEXlRDou-533" value="cmd nav2" style="shape=hexagon;perimeter=hexagonPerimeter2;whiteSpace=wrap;html=1;fixedSize=1;fillColor=#ffe6cc;strokeColor=#d79b00;size=8;fontStyle=2;fontSize=11;" vertex="1" parent="dkalc_hDWcm7XEXlRDou-539">
          <mxGeometry x="370.7500000000001" y="90" width="109" height="20" as="geometry" />
        </mxCell>
        <mxCell id="dkalc_hDWcm7XEXlRDou-534" style="edgeStyle=orthogonalEdgeStyle;rounded=0;orthogonalLoop=1;jettySize=auto;html=1;exitX=1;exitY=0.5;exitDx=0;exitDy=0;entryX=0;entryY=0.5;entryDx=0;entryDy=0;" edge="1" parent="dkalc_hDWcm7XEXlRDou-539" source="dkalc_hDWcm7XEXlRDou-524" target="dkalc_hDWcm7XEXlRDou-533">
          <mxGeometry relative="1" as="geometry" />
        </mxCell>
        <mxCell id="dkalc_hDWcm7XEXlRDou-536" style="edgeStyle=orthogonalEdgeStyle;rounded=0;orthogonalLoop=1;jettySize=auto;html=1;exitX=1;exitY=0.5;exitDx=0;exitDy=0;entryX=0;entryY=0.5;entryDx=0;entryDy=0;" edge="1" parent="dkalc_hDWcm7XEXlRDou-539" source="dkalc_hDWcm7XEXlRDou-535" target="dkalc_hDWcm7XEXlRDou-524">
          <mxGeometry relative="1" as="geometry">
            <Array as="points">
              <mxPoint x="160.87" y="10" />
              <mxPoint x="160.87" y="100" />
            </Array>
          </mxGeometry>
        </mxCell>
        <mxCell id="dkalc_hDWcm7XEXlRDou-535" value="Nav2 instructions" style="shape=hexagon;perimeter=hexagonPerimeter2;whiteSpace=wrap;html=1;fixedSize=1;fillColor=#d5e8d4;strokeColor=#82b366;size=8;fontStyle=2;fontColor=#000000;fontSize=11;" vertex="1" parent="dkalc_hDWcm7XEXlRDou-539">
          <mxGeometry width="144" height="20" as="geometry" />
        </mxCell>
        <mxCell id="dkalc_hDWcm7XEXlRDou-538" style="edgeStyle=orthogonalEdgeStyle;rounded=0;orthogonalLoop=1;jettySize=auto;html=1;exitX=0;exitY=0;exitDx=122;exitDy=24.5;exitPerimeter=0;entryX=0;entryY=0.5;entryDx=0;entryDy=0;" edge="1" parent="dkalc_hDWcm7XEXlRDou-539" source="dkalc_hDWcm7XEXlRDou-537" target="dkalc_hDWcm7XEXlRDou-524">
          <mxGeometry relative="1" as="geometry">
            <Array as="points">
              <mxPoint x="160.87" y="235" />
              <mxPoint x="160.87" y="100" />
            </Array>
          </mxGeometry>
        </mxCell>
        <mxCell id="dkalc_hDWcm7XEXlRDou-537" value="Nav2 config" style="shape=note;whiteSpace=wrap;html=1;backgroundOutline=1;darkOpacity=0.05;size=9;fontStyle=1;fillColor=#e1d5e7;strokeColor=#9673a6;fontColor=#6600CC;" vertex="1" parent="dkalc_hDWcm7XEXlRDou-539">
          <mxGeometry x="21.5" y="210" width="122" height="40" as="geometry" />
        </mxCell>
        <mxCell id="dkalc_hDWcm7XEXlRDou-542" value="" style="group" vertex="1" connectable="0" parent="WIyWlLk6GJQsqaUBKTNV-1">
          <mxGeometry x="1360" y="743.5" width="506" height="95" as="geometry" />
        </mxCell>
        <mxCell id="dkalc_hDWcm7XEXlRDou-424" value="&lt;b&gt;CALL_M_MONITOR&lt;/b&gt;" style="rounded=1;whiteSpace=wrap;html=1;fontSize=12;glass=0;strokeWidth=1;shadow=0;arcSize=0;" vertex="1" parent="dkalc_hDWcm7XEXlRDou-542">
          <mxGeometry x="174" y="30" width="134" height="40" as="geometry" />
        </mxCell>
        <mxCell id="dkalc_hDWcm7XEXlRDou-425" style="edgeStyle=orthogonalEdgeStyle;rounded=0;orthogonalLoop=1;jettySize=auto;html=1;exitX=0;exitY=0;exitDx=121.99999999999999;exitDy=24.5;exitPerimeter=0;entryX=0;entryY=0.5;entryDx=0;entryDy=0;" edge="1" parent="dkalc_hDWcm7XEXlRDou-542" source="dkalc_hDWcm7XEXlRDou-426" target="dkalc_hDWcm7XEXlRDou-424">
          <mxGeometry relative="1" as="geometry">
            <Array as="points">
              <mxPoint x="150" y="79" />
              <mxPoint x="150" y="50" />
            </Array>
          </mxGeometry>
        </mxCell>
        <mxCell id="dkalc_hDWcm7XEXlRDou-426" value="Rviz configuration" style="shape=note;whiteSpace=wrap;html=1;backgroundOutline=1;darkOpacity=0.05;size=9;fontStyle=1;fillColor=#e1d5e7;strokeColor=#9673a6;fontColor=#6600CC;" vertex="1" parent="dkalc_hDWcm7XEXlRDou-542">
          <mxGeometry y="55" width="122" height="40" as="geometry" />
        </mxCell>
        <mxCell id="dkalc_hDWcm7XEXlRDou-427" value="&lt;div&gt;Screen&lt;/div&gt;&lt;div&gt;(Visualization)&lt;br&gt;&lt;/div&gt;" style="shape=trapezoid;perimeter=trapezoidPerimeter;whiteSpace=wrap;html=1;fixedSize=1;size=13;fillColor=#f8cecc;strokeColor=#b85450;fontStyle=1;fontColor=#FF0000;" vertex="1" parent="dkalc_hDWcm7XEXlRDou-542">
          <mxGeometry x="362" width="120" height="30" as="geometry" />
        </mxCell>
        <mxCell id="dkalc_hDWcm7XEXlRDou-428" style="edgeStyle=orthogonalEdgeStyle;rounded=0;orthogonalLoop=1;jettySize=auto;html=1;exitX=1;exitY=0.5;exitDx=0;exitDy=0;entryX=0;entryY=0.5;entryDx=0;entryDy=0;" edge="1" parent="dkalc_hDWcm7XEXlRDou-542" source="dkalc_hDWcm7XEXlRDou-424" target="dkalc_hDWcm7XEXlRDou-427">
          <mxGeometry relative="1" as="geometry" />
        </mxCell>
        <mxCell id="dkalc_hDWcm7XEXlRDou-429" style="edgeStyle=orthogonalEdgeStyle;rounded=0;orthogonalLoop=1;jettySize=auto;html=1;exitX=1;exitY=0.5;exitDx=0;exitDy=0;entryX=0;entryY=0.5;entryDx=0;entryDy=0;" edge="1" parent="dkalc_hDWcm7XEXlRDou-542" source="dkalc_hDWcm7XEXlRDou-430" target="dkalc_hDWcm7XEXlRDou-424">
          <mxGeometry relative="1" as="geometry">
            <Array as="points">
              <mxPoint x="150" y="30" />
              <mxPoint x="150" y="50" />
            </Array>
          </mxGeometry>
        </mxCell>
        <mxCell id="dkalc_hDWcm7XEXlRDou-430" value="...all..." style="shape=hexagon;perimeter=hexagonPerimeter2;whiteSpace=wrap;html=1;fixedSize=1;fillColor=#d5e8d4;strokeColor=#82b366;size=8;fontStyle=2;fontColor=#000000;fontSize=11;" vertex="1" parent="dkalc_hDWcm7XEXlRDou-542">
          <mxGeometry x="6.5" y="20" width="109" height="20" as="geometry" />
        </mxCell>
        <mxCell id="dkalc_hDWcm7XEXlRDou-540" value="Nav2 instructions" style="shape=hexagon;perimeter=hexagonPerimeter2;whiteSpace=wrap;html=1;fixedSize=1;fillColor=#ffe6cc;strokeColor=#d79b00;size=8;fontStyle=2;fontSize=11;" vertex="1" parent="dkalc_hDWcm7XEXlRDou-542">
          <mxGeometry x="362" y="75" width="144" height="20" as="geometry" />
        </mxCell>
        <mxCell id="dkalc_hDWcm7XEXlRDou-541" style="edgeStyle=orthogonalEdgeStyle;rounded=0;orthogonalLoop=1;jettySize=auto;html=1;exitX=1;exitY=0.5;exitDx=0;exitDy=0;entryX=0;entryY=0.5;entryDx=0;entryDy=0;" edge="1" parent="dkalc_hDWcm7XEXlRDou-542" source="dkalc_hDWcm7XEXlRDou-424" target="dkalc_hDWcm7XEXlRDou-540">
          <mxGeometry relative="1" as="geometry" />
        </mxCell>
        <mxCell id="dkalc_hDWcm7XEXlRDou-543" style="edgeStyle=orthogonalEdgeStyle;rounded=0;orthogonalLoop=1;jettySize=auto;html=1;exitX=1;exitY=0.5;exitDx=0;exitDy=0;entryX=0;entryY=0.5;entryDx=0;entryDy=0;dashed=1;fillColor=#dae8fc;strokeColor=#6c8ebf;" edge="1" parent="WIyWlLk6GJQsqaUBKTNV-1" source="dkalc_hDWcm7XEXlRDou-473" target="dkalc_hDWcm7XEXlRDou-418">
          <mxGeometry relative="1" as="geometry">
            <Array as="points">
              <mxPoint x="530" y="682" />
              <mxPoint x="530" y="530" />
            </Array>
          </mxGeometry>
        </mxCell>
        <mxCell id="dkalc_hDWcm7XEXlRDou-544" style="edgeStyle=orthogonalEdgeStyle;rounded=0;orthogonalLoop=1;jettySize=auto;html=1;exitX=1;exitY=0.5;exitDx=0;exitDy=0;entryX=0;entryY=0.5;entryDx=0;entryDy=0;fillColor=#dae8fc;strokeColor=#6c8ebf;dashed=1;strokeWidth=2;" edge="1" parent="WIyWlLk6GJQsqaUBKTNV-1" source="dkalc_hDWcm7XEXlRDou-471" target="dkalc_hDWcm7XEXlRDou-408">
          <mxGeometry relative="1" as="geometry">
            <Array as="points">
              <mxPoint x="560" y="712" />
              <mxPoint x="560" y="560" />
            </Array>
          </mxGeometry>
        </mxCell>
        <mxCell id="dkalc_hDWcm7XEXlRDou-547" style="edgeStyle=orthogonalEdgeStyle;rounded=0;orthogonalLoop=1;jettySize=auto;html=1;exitX=1;exitY=0.5;exitDx=0;exitDy=0;entryX=0;entryY=0.5;entryDx=0;entryDy=0;fillColor=#dae8fc;strokeColor=#6c8ebf;dashed=1;dashPattern=1 1;" edge="1" parent="WIyWlLk6GJQsqaUBKTNV-1" source="dkalc_hDWcm7XEXlRDou-481" target="dkalc_hDWcm7XEXlRDou-526">
          <mxGeometry relative="1" as="geometry" />
        </mxCell>
        <mxCell id="dkalc_hDWcm7XEXlRDou-548" style="edgeStyle=orthogonalEdgeStyle;rounded=0;orthogonalLoop=1;jettySize=auto;html=1;exitX=1;exitY=0.5;exitDx=0;exitDy=0;entryX=0;entryY=0.5;entryDx=0;entryDy=0;fillColor=#dae8fc;strokeColor=#6c8ebf;dashed=1;strokeWidth=2;" edge="1" parent="WIyWlLk6GJQsqaUBKTNV-1" source="dkalc_hDWcm7XEXlRDou-471" target="dkalc_hDWcm7XEXlRDou-530">
          <mxGeometry relative="1" as="geometry" />
        </mxCell>
        <mxCell id="dkalc_hDWcm7XEXlRDou-549" style="edgeStyle=orthogonalEdgeStyle;rounded=0;orthogonalLoop=1;jettySize=auto;html=1;exitX=1;exitY=0.5;exitDx=0;exitDy=0;entryX=0;entryY=0.5;entryDx=0;entryDy=0;fillColor=#dae8fc;strokeColor=#6c8ebf;dashed=1;strokeWidth=1;" edge="1" parent="WIyWlLk6GJQsqaUBKTNV-1" source="dkalc_hDWcm7XEXlRDou-473" target="dkalc_hDWcm7XEXlRDou-532">
          <mxGeometry relative="1" as="geometry">
            <Array as="points">
              <mxPoint x="530" y="682" />
              <mxPoint x="530" y="1106" />
            </Array>
          </mxGeometry>
        </mxCell>
        <mxCell id="dkalc_hDWcm7XEXlRDou-550" style="edgeStyle=orthogonalEdgeStyle;rounded=0;orthogonalLoop=1;jettySize=auto;html=1;exitX=1;exitY=0.5;exitDx=0;exitDy=0;entryX=0;entryY=0.5;entryDx=0;entryDy=0;fillColor=#e1d5e7;strokeColor=#9673a6;dashed=1;" edge="1" parent="WIyWlLk6GJQsqaUBKTNV-1" source="dkalc_hDWcm7XEXlRDou-533" target="dkalc_hDWcm7XEXlRDou-414">
          <mxGeometry relative="1" as="geometry" />
        </mxCell>
        <mxCell id="dkalc_hDWcm7XEXlRDou-554" value="" style="group" vertex="1" connectable="0" parent="WIyWlLk6GJQsqaUBKTNV-1">
          <mxGeometry x="724.13" y="520" width="460.0000000000001" height="191" as="geometry" />
        </mxCell>
        <mxCell id="dkalc_hDWcm7XEXlRDou-402" value="&lt;b&gt;CALL_M_SUPERVISOR&lt;/b&gt;" style="rounded=1;whiteSpace=wrap;html=1;fontSize=12;glass=0;strokeWidth=1;shadow=0;arcSize=0;" vertex="1" parent="dkalc_hDWcm7XEXlRDou-554">
          <mxGeometry x="154.5" y="61" width="156" height="40" as="geometry" />
        </mxCell>
        <mxCell id="dkalc_hDWcm7XEXlRDou-403" value="/tf map-&amp;gt;odom SLAM" style="shape=hexagon;perimeter=hexagonPerimeter2;whiteSpace=wrap;html=1;fixedSize=1;fillColor=#ffe6cc;strokeColor=#d79b00;size=8;fontStyle=2;fontSize=11;" vertex="1" parent="dkalc_hDWcm7XEXlRDou-554">
          <mxGeometry x="337.5000000000001" y="31" width="122.5" height="20" as="geometry" />
        </mxCell>
        <mxCell id="dkalc_hDWcm7XEXlRDou-404" style="edgeStyle=orthogonalEdgeStyle;rounded=0;orthogonalLoop=1;jettySize=auto;html=1;exitX=1;exitY=0.5;exitDx=0;exitDy=0;entryX=0;entryY=0.5;entryDx=0;entryDy=0;" edge="1" parent="dkalc_hDWcm7XEXlRDou-554" source="dkalc_hDWcm7XEXlRDou-402" target="dkalc_hDWcm7XEXlRDou-403">
          <mxGeometry relative="1" as="geometry">
            <Array as="points">
              <mxPoint x="324.5000000000001" y="81" />
              <mxPoint x="324.5000000000001" y="41" />
            </Array>
          </mxGeometry>
        </mxCell>
        <mxCell id="dkalc_hDWcm7XEXlRDou-405" style="edgeStyle=orthogonalEdgeStyle;rounded=0;orthogonalLoop=1;jettySize=auto;html=1;exitX=1;exitY=0.5;exitDx=0;exitDy=0;" edge="1" parent="dkalc_hDWcm7XEXlRDou-554" source="dkalc_hDWcm7XEXlRDou-406">
          <mxGeometry relative="1" as="geometry">
            <mxPoint x="154.5" y="81" as="targetPoint" />
          </mxGeometry>
        </mxCell>
        <mxCell id="dkalc_hDWcm7XEXlRDou-406" value="cmd teleop joystick" style="shape=hexagon;perimeter=hexagonPerimeter2;whiteSpace=wrap;html=1;fixedSize=1;fillColor=#d5e8d4;strokeColor=#82b366;size=8;fontStyle=2;fontColor=#000000;fontSize=11;" vertex="1" parent="dkalc_hDWcm7XEXlRDou-554">
          <mxGeometry x="7" y="61" width="108" height="20" as="geometry" />
        </mxCell>
        <mxCell id="dkalc_hDWcm7XEXlRDou-407" style="edgeStyle=orthogonalEdgeStyle;rounded=0;orthogonalLoop=1;jettySize=auto;html=1;exitX=1;exitY=0.5;exitDx=0;exitDy=0;entryX=0;entryY=0.5;entryDx=0;entryDy=0;" edge="1" parent="dkalc_hDWcm7XEXlRDou-554" source="dkalc_hDWcm7XEXlRDou-408" target="dkalc_hDWcm7XEXlRDou-402">
          <mxGeometry relative="1" as="geometry" />
        </mxCell>
        <mxCell id="dkalc_hDWcm7XEXlRDou-408" value="Lidar2 Scan" style="shape=hexagon;perimeter=hexagonPerimeter2;whiteSpace=wrap;html=1;fixedSize=1;fillColor=#d5e8d4;strokeColor=#82b366;size=8;fontStyle=2;fontColor=#000000;fontSize=11;" vertex="1" parent="dkalc_hDWcm7XEXlRDou-554">
          <mxGeometry x="7" y="30" width="108" height="20" as="geometry" />
        </mxCell>
        <mxCell id="dkalc_hDWcm7XEXlRDou-411" style="edgeStyle=orthogonalEdgeStyle;rounded=0;orthogonalLoop=1;jettySize=auto;html=1;exitX=1;exitY=0.5;exitDx=0;exitDy=0;entryX=0;entryY=0.5;entryDx=0;entryDy=0;" edge="1" parent="dkalc_hDWcm7XEXlRDou-554" source="dkalc_hDWcm7XEXlRDou-412" target="dkalc_hDWcm7XEXlRDou-402">
          <mxGeometry relative="1" as="geometry">
            <Array as="points">
              <mxPoint x="134.5" y="101" />
              <mxPoint x="134.5" y="81" />
            </Array>
          </mxGeometry>
        </mxCell>
        <mxCell id="dkalc_hDWcm7XEXlRDou-412" value="cmd teleop keyboard" style="shape=hexagon;perimeter=hexagonPerimeter2;whiteSpace=wrap;html=1;fixedSize=1;fillColor=#d5e8d4;strokeColor=#82b366;size=8;fontStyle=2;fontColor=#000000;fontSize=11;" vertex="1" parent="dkalc_hDWcm7XEXlRDou-554">
          <mxGeometry y="91" width="122" height="20" as="geometry" />
        </mxCell>
        <mxCell id="dkalc_hDWcm7XEXlRDou-413" style="edgeStyle=orthogonalEdgeStyle;rounded=0;orthogonalLoop=1;jettySize=auto;html=1;exitX=1;exitY=0.5;exitDx=0;exitDy=0;entryX=0;entryY=0.5;entryDx=0;entryDy=0;" edge="1" parent="dkalc_hDWcm7XEXlRDou-554" source="dkalc_hDWcm7XEXlRDou-414" target="dkalc_hDWcm7XEXlRDou-402">
          <mxGeometry relative="1" as="geometry">
            <Array as="points">
              <mxPoint x="134.5" y="131" />
              <mxPoint x="134.5" y="81" />
            </Array>
          </mxGeometry>
        </mxCell>
        <mxCell id="dkalc_hDWcm7XEXlRDou-414" value="cmd nav2" style="shape=hexagon;perimeter=hexagonPerimeter2;whiteSpace=wrap;html=1;fixedSize=1;fillColor=#d5e8d4;strokeColor=#82b366;size=8;fontStyle=2;fontColor=#000000;fontSize=11;" vertex="1" parent="dkalc_hDWcm7XEXlRDou-554">
          <mxGeometry x="7" y="121" width="109" height="20" as="geometry" />
        </mxCell>
        <mxCell id="dkalc_hDWcm7XEXlRDou-415" style="edgeStyle=orthogonalEdgeStyle;rounded=0;orthogonalLoop=1;jettySize=auto;html=1;exitX=0;exitY=0;exitDx=122;exitDy=24.5;exitPerimeter=0;entryX=0;entryY=0.5;entryDx=0;entryDy=0;" edge="1" parent="dkalc_hDWcm7XEXlRDou-554" source="dkalc_hDWcm7XEXlRDou-416" target="dkalc_hDWcm7XEXlRDou-402">
          <mxGeometry relative="1" as="geometry">
            <Array as="points">
              <mxPoint x="134.5" y="175" />
              <mxPoint x="134.5" y="81" />
            </Array>
          </mxGeometry>
        </mxCell>
        <mxCell id="dkalc_hDWcm7XEXlRDou-416" value="&lt;div&gt;Robot description&lt;/div&gt;&lt;div&gt;URDF&lt;br&gt;&lt;/div&gt;" style="shape=note;whiteSpace=wrap;html=1;backgroundOutline=1;darkOpacity=0.05;size=9;fontStyle=1;fillColor=#e1d5e7;strokeColor=#9673a6;fontColor=#6600CC;" vertex="1" parent="dkalc_hDWcm7XEXlRDou-554">
          <mxGeometry x="0.5" y="151" width="122" height="40" as="geometry" />
        </mxCell>
        <mxCell id="dkalc_hDWcm7XEXlRDou-417" style="edgeStyle=orthogonalEdgeStyle;rounded=0;orthogonalLoop=1;jettySize=auto;html=1;exitX=1;exitY=0.5;exitDx=0;exitDy=0;entryX=0;entryY=0.5;entryDx=0;entryDy=0;" edge="1" parent="dkalc_hDWcm7XEXlRDou-554" source="dkalc_hDWcm7XEXlRDou-418" target="dkalc_hDWcm7XEXlRDou-402">
          <mxGeometry relative="1" as="geometry" />
        </mxCell>
        <mxCell id="dkalc_hDWcm7XEXlRDou-418" value="Lidar1 Scan" style="shape=hexagon;perimeter=hexagonPerimeter2;whiteSpace=wrap;html=1;fixedSize=1;fillColor=#d5e8d4;strokeColor=#82b366;size=8;fontStyle=2;fontColor=#000000;fontSize=11;" vertex="1" parent="dkalc_hDWcm7XEXlRDou-554">
          <mxGeometry x="7" width="108" height="20" as="geometry" />
        </mxCell>
        <mxCell id="dkalc_hDWcm7XEXlRDou-419" value="/tf robot state" style="shape=hexagon;perimeter=hexagonPerimeter2;whiteSpace=wrap;html=1;fixedSize=1;fillColor=#ffe6cc;strokeColor=#d79b00;size=8;fontStyle=2;fontSize=11;" vertex="1" parent="dkalc_hDWcm7XEXlRDou-554">
          <mxGeometry x="337.5000000000001" y="111" width="108" height="20" as="geometry" />
        </mxCell>
        <mxCell id="dkalc_hDWcm7XEXlRDou-420" style="edgeStyle=orthogonalEdgeStyle;rounded=0;orthogonalLoop=1;jettySize=auto;html=1;exitX=1;exitY=0.5;exitDx=0;exitDy=0;entryX=0;entryY=0.5;entryDx=0;entryDy=0;" edge="1" parent="dkalc_hDWcm7XEXlRDou-554" source="dkalc_hDWcm7XEXlRDou-402" target="dkalc_hDWcm7XEXlRDou-419">
          <mxGeometry relative="1" as="geometry">
            <Array as="points">
              <mxPoint x="324.5000000000001" y="81" />
              <mxPoint x="324.5000000000001" y="121" />
            </Array>
          </mxGeometry>
        </mxCell>
        <mxCell id="dkalc_hDWcm7XEXlRDou-421" value="cmd TriOrb" style="shape=hexagon;perimeter=hexagonPerimeter2;whiteSpace=wrap;html=1;fixedSize=1;fillColor=#ffe6cc;strokeColor=#d79b00;size=8;fontStyle=2;fontSize=11;" vertex="1" parent="dkalc_hDWcm7XEXlRDou-554">
          <mxGeometry x="337.5000000000001" y="71" width="108" height="20" as="geometry" />
        </mxCell>
        <mxCell id="dkalc_hDWcm7XEXlRDou-422" style="edgeStyle=orthogonalEdgeStyle;rounded=0;orthogonalLoop=1;jettySize=auto;html=1;exitX=1;exitY=0.5;exitDx=0;exitDy=0;entryX=0;entryY=0.5;entryDx=0;entryDy=0;" edge="1" parent="dkalc_hDWcm7XEXlRDou-554" source="dkalc_hDWcm7XEXlRDou-402" target="dkalc_hDWcm7XEXlRDou-421">
          <mxGeometry relative="1" as="geometry" />
        </mxCell>
        <mxCell id="dkalc_hDWcm7XEXlRDou-555" style="edgeStyle=orthogonalEdgeStyle;rounded=0;orthogonalLoop=1;jettySize=auto;html=1;exitX=1;exitY=0.5;exitDx=0;exitDy=0;entryX=0;entryY=0.5;entryDx=0;entryDy=0;fillColor=#ffe6cc;strokeColor=#d79b00;dashed=1;" edge="1" parent="WIyWlLk6GJQsqaUBKTNV-1" source="dkalc_hDWcm7XEXlRDou-403" target="dkalc_hDWcm7XEXlRDou-528">
          <mxGeometry relative="1" as="geometry">
            <Array as="points">
              <mxPoint x="1204" y="561" />
              <mxPoint x="1204" y="791" />
              <mxPoint x="630" y="791" />
              <mxPoint x="630" y="1021" />
            </Array>
          </mxGeometry>
        </mxCell>
        <mxCell id="dkalc_hDWcm7XEXlRDou-557" style="edgeStyle=orthogonalEdgeStyle;rounded=0;orthogonalLoop=1;jettySize=auto;html=1;exitX=1;exitY=0.5;exitDx=0;exitDy=0;entryX=0;entryY=0.5;entryDx=0;entryDy=0;fillColor=#ffe6cc;strokeColor=#d79b00;strokeWidth=2;dashed=1;" edge="1" parent="WIyWlLk6GJQsqaUBKTNV-1" source="dkalc_hDWcm7XEXlRDou-421" target="dkalc_hDWcm7XEXlRDou-464">
          <mxGeometry relative="1" as="geometry">
            <Array as="points">
              <mxPoint x="1220" y="601" />
              <mxPoint x="1220" y="510" />
              <mxPoint x="-170" y="510" />
              <mxPoint x="-170" y="885" />
            </Array>
          </mxGeometry>
        </mxCell>
        <mxCell id="dkalc_hDWcm7XEXlRDou-558" style="edgeStyle=orthogonalEdgeStyle;rounded=0;orthogonalLoop=1;jettySize=auto;html=1;exitX=1;exitY=0.5;exitDx=0;exitDy=0;entryX=0;entryY=0.5;entryDx=0;entryDy=0;fillColor=#ffe6cc;strokeColor=#d79b00;strokeWidth=2;dashed=1;" edge="1" parent="WIyWlLk6GJQsqaUBKTNV-1" source="dkalc_hDWcm7XEXlRDou-419" target="dkalc_hDWcm7XEXlRDou-466">
          <mxGeometry relative="1" as="geometry">
            <Array as="points">
              <mxPoint x="1250" y="641" />
              <mxPoint x="1250" y="460" />
              <mxPoint x="-210" y="460" />
              <mxPoint x="-210" y="915" />
            </Array>
          </mxGeometry>
        </mxCell>
        <mxCell id="dkalc_hDWcm7XEXlRDou-560" style="edgeStyle=orthogonalEdgeStyle;rounded=0;orthogonalLoop=1;jettySize=auto;html=1;exitX=1;exitY=0.5;exitDx=0;exitDy=0;entryX=0;entryY=0.5;entryDx=0;entryDy=0;fillColor=#d5e8d4;strokeColor=#82b366;dashed=1;" edge="1" parent="WIyWlLk6GJQsqaUBKTNV-1" source="dkalc_hDWcm7XEXlRDou-439" target="dkalc_hDWcm7XEXlRDou-470">
          <mxGeometry relative="1" as="geometry">
            <Array as="points">
              <mxPoint x="-310" y="861" />
              <mxPoint x="-310" y="974" />
            </Array>
          </mxGeometry>
        </mxCell>
        <mxCell id="dkalc_hDWcm7XEXlRDou-561" style="edgeStyle=orthogonalEdgeStyle;rounded=0;orthogonalLoop=1;jettySize=auto;html=1;exitX=1;exitY=0.5;exitDx=0;exitDy=0;entryX=0;entryY=0.5;entryDx=0;entryDy=0;fillColor=#d5e8d4;strokeColor=#82b366;dashed=1;" edge="1" parent="WIyWlLk6GJQsqaUBKTNV-1" source="dkalc_hDWcm7XEXlRDou-443" target="dkalc_hDWcm7XEXlRDou-468">
          <mxGeometry relative="1" as="geometry" />
        </mxCell>
        <mxCell id="dkalc_hDWcm7XEXlRDou-562" style="edgeStyle=orthogonalEdgeStyle;rounded=0;orthogonalLoop=1;jettySize=auto;html=1;exitX=1;exitY=0.5;exitDx=0;exitDy=0;entryX=0;entryY=0.5;entryDx=0;entryDy=0;fillColor=#d5e8d4;strokeColor=#82b366;dashed=1;" edge="1" parent="WIyWlLk6GJQsqaUBKTNV-1" source="dkalc_hDWcm7XEXlRDou-441" target="dkalc_hDWcm7XEXlRDou-412">
          <mxGeometry relative="1" as="geometry">
            <Array as="points">
              <mxPoint x="-290" y="781" />
              <mxPoint x="-290" y="430" />
              <mxPoint x="620" y="430" />
              <mxPoint x="620" y="621" />
            </Array>
          </mxGeometry>
        </mxCell>
        <mxCell id="dkalc_hDWcm7XEXlRDou-563" style="edgeStyle=orthogonalEdgeStyle;rounded=0;orthogonalLoop=1;jettySize=auto;html=1;exitX=1;exitY=0.5;exitDx=0;exitDy=0;entryX=0;entryY=0.5;entryDx=0;entryDy=0;fillColor=#d5e8d4;strokeColor=#82b366;dashed=1;" edge="1" parent="WIyWlLk6GJQsqaUBKTNV-1" source="dkalc_hDWcm7XEXlRDou-437" target="dkalc_hDWcm7XEXlRDou-406">
          <mxGeometry relative="1" as="geometry">
            <Array as="points">
              <mxPoint x="-330" y="741" />
              <mxPoint x="-330" y="400" />
              <mxPoint x="660" y="400" />
              <mxPoint x="660" y="591" />
            </Array>
          </mxGeometry>
        </mxCell>
        <mxCell id="dkalc_hDWcm7XEXlRDou-564" style="edgeStyle=orthogonalEdgeStyle;rounded=0;orthogonalLoop=1;jettySize=auto;html=1;exitX=1;exitY=0.5;exitDx=0;exitDy=0;entryX=0;entryY=0.5;entryDx=0;entryDy=0;fillColor=#e1d5e7;strokeColor=#9673a6;" edge="1" parent="WIyWlLk6GJQsqaUBKTNV-1" source="dkalc_hDWcm7XEXlRDou-540" target="dkalc_hDWcm7XEXlRDou-535">
          <mxGeometry relative="1" as="geometry" />
        </mxCell>
      </root>
    </mxGraphModel>
  </diagram>
</mxfile>
